<?xml version="1.0" encoding="iso-8859-1"?>
<!-- Generator: Adobe Illustrator 16.0.0, SVG Export Plug-In . SVG Version: 6.00 Build 0)  -->
<!DOCTYPE svg PUBLIC "-//W3C//DTD SVG 1.1//EN" "http://www.w3.org/Graphics/SVG/1.1/DTD/svg11.dtd">
<svg version="1.1" id="Capa_1" xmlns="http://www.w3.org/2000/svg" xmlns:xlink="http://www.w3.org/1999/xlink" x="0px" y="0px"
	 width="612.1px" height="612.1px" viewBox="0 0 612.1 612.1" style="enable-background:new 0 0 612.1 612.1;" xml:space="preserve"
	>
<g>
	<g>
		<path d="M306,611.947c-168.7,0-306-137.301-306-306c0-63.2,19.2-123.9,55.7-175.6c35.6-50.4,84.8-88.6,142.4-110.6
			c3.2-1.2,6.7,0.4,7.9,3.6c1.2,3.2-0.4,6.7-3.6,7.9c-55.3,21-102.6,57.8-136.7,106.2c-34.9,49.5-53.4,107.8-53.4,168.5
			c0,162,131.8,293.699,293.7,293.699c161.9,0,293.7-131.8,293.7-293.699c0-75.5-30.101-150-82.5-204.5
			c-56.5-57.2-136.4-91.7-205.101-88.9v43.6c0,3.4-2.699,6.1-6.1,6.1c-3.4,0-6.1-2.7-6.1-6.1v-49.4c0-3.2,2.5-5.9,5.7-6.1
			c73.4-5.2,160,31,220.5,92.3c54.601,56.8,86,134.4,86,213C612,474.646,474.7,611.947,306,611.947z"/>
		<path d="M306,312.046c-0.8,0-1.6-0.2-2.3-0.5c-2.3-0.9-3.8-3.2-3.8-5.7v-250.4c0-3.4,2.7-6.1,6.1-6.1c3.4,0,6.1,2.7,6.1,6.1v235.6
			l103.601-103.6c2.399-2.4,6.3-2.4,8.7,0c2.399,2.4,2.399,6.3,0,8.7L310.3,310.247C309.2,311.447,307.6,312.046,306,312.046z"/>
	</g>
</g>
<g>
</g>
<g>
</g>
<g>
</g>
<g>
</g>
<g>
</g>
<g>
</g>
<g>
</g>
<g>
</g>
<g>
</g>
<g>
</g>
<g>
</g>
<g>
</g>
<g>
</g>
<g>
</g>
<g>
</g>
</svg>
