<?xml version="1.0" encoding="iso-8859-1"?>
<!-- Generator: Adobe Illustrator 19.1.0, SVG Export Plug-In . SVG Version: 6.00 Build 0)  -->
<svg version="1.1" id="Capa_1" xmlns="http://www.w3.org/2000/svg" xmlns:xlink="http://www.w3.org/1999/xlink" x="0px" y="0px"
	 viewBox="0 0 268.8 268.8" style="enable-background:new 0 0 268.8 268.8;" xml:space="preserve">
<g>
	<path d="M244.02,31.374H20.58C7.98,31.374,0,39.363,0,51.558v181.663c0,2.523,1.68,4.205,4.2,4.205h260.4
		c2.52,0,4.2-1.682,4.2-4.205V51.558C268.8,38.522,256.2,31.374,244.02,31.374z M260.4,229.016H8.4V73.425h226.8
		c2.52,0,4.2-1.682,4.2-4.205s-1.68-4.205-4.2-4.205H8.4V51.558c0-9.672,6.72-11.774,12.18-11.774h223.44
		c7.98,0,16.38,4.205,16.38,11.774C260.4,51.558,260.4,229.016,260.4,229.016z"/>
	<path d="M15.96,46.933c-0.84,0.841-1.26,1.682-1.26,2.944c0,1.262,0.42,2.103,1.26,2.944c0.84,0.841,1.68,1.262,2.94,1.262
		s2.1-0.421,2.94-1.262c0.84-0.841,1.26-2.103,1.26-2.944c0-1.262-0.42-2.103-1.26-2.944C20.16,45.251,17.64,45.251,15.96,46.933z"
		/>
	<path d="M32.76,46.933c-0.84,0.841-1.26,1.682-1.26,2.944c0,1.262,0.42,2.103,1.26,2.944c0.84,0.841,2.1,1.262,2.94,1.262
		c1.26,0,2.1-0.421,2.94-1.262s1.26-2.103,1.26-2.944c0-1.262-0.42-2.103-1.26-2.944C36.96,45.251,34.02,45.251,32.76,46.933z"/>
	<path d="M49.56,46.933c-0.84,0.841-1.26,1.682-1.26,2.944c0,1.262,0.42,2.103,1.26,2.944s1.68,1.262,2.94,1.262
		s2.1-0.421,2.94-1.262s1.26-1.682,1.26-2.944c0-1.262-0.42-2.103-1.26-2.944C53.76,45.251,51.24,45.251,49.56,46.933z"/>
	<path d="M178.92,129.774c-5.04-10.092-15.54-16.4-26.46-16.4c-4.2,0-7.98,0.841-11.76,2.523c-5.46-9.251-15.12-15.139-25.62-15.139
		c-15.96,0-28.98,12.615-29.82,28.175c-15.54,0.841-29.4,14.718-29.4,31.118S69.3,191.17,84,191.17h96.6
		c14.7,0,28.14-14.718,28.14-31.118S194.88,129.774,178.92,129.774z M180.6,182.759H84c-10.08,0-19.74-10.933-19.74-22.708
		c0-11.774,10.5-22.708,22.26-22.708c0.84,0,1.68,0,2.52,0c1.26,0,2.52-0.421,3.36-1.262c0.84-0.841,1.26-2.103,1.26-3.364
		c0-0.841,0-1.682,0-2.523c0-11.774,9.66-21.446,21.42-21.446c8.82,0,16.8,5.467,19.74,13.877c0.42,1.262,1.26,2.103,2.52,2.523
		c1.26,0.421,2.52,0.421,3.36-0.421c3.36-2.103,7.14-3.364,11.34-3.364c8.82,0,16.8,5.467,19.74,13.457
		c0.84,1.682,2.52,2.944,4.2,2.523h0.42c0.42,0,1.26,0,1.68,0c11.76,0,21.84,10.092,21.84,21.867
		C200.34,171.826,190.68,182.759,180.6,182.759z"/>
</g>
<g>
</g>
<g>
</g>
<g>
</g>
<g>
</g>
<g>
</g>
<g>
</g>
<g>
</g>
<g>
</g>
<g>
</g>
<g>
</g>
<g>
</g>
<g>
</g>
<g>
</g>
<g>
</g>
<g>
</g>
</svg>
