<?xml version="1.0" encoding="utf-8"?>
<!-- Generator: Adobe Illustrator 16.0.0, SVG Export Plug-In . SVG Version: 6.00 Build 0)  -->
<!DOCTYPE svg PUBLIC "-//W3C//DTD SVG 1.1//EN" "http://www.w3.org/Graphics/SVG/1.1/DTD/svg11.dtd">
<svg version="1.1" id="Layer_1" xmlns="http://www.w3.org/2000/svg" xmlns:xlink="http://www.w3.org/1999/xlink" x="0px" y="0px"
	 width="1300px" height="1224px" viewBox="0 0 1300 1224" enable-background="new 0 0 1300 1224" xml:space="preserve">
<path fill-rule="evenodd" clip-rule="evenodd" fill="#FFFFFF" d="M461.595,515.161c0.525,0.521,0.115,2.154,0.731,3.738
	c1.843,4.75,4.781,12.109,4.781,12.109s16.567-8.474,22.109-13.98l19.136-13.547l14.768-14.195l10.436-11.655l13.888-15.948
	l4.474-13.88l1.505-12.229c3.282-6.181,1.261-5.472,4.026-12.361c0,0-1.994-21.976-10.005-21.665
	c-4.424,0.172-17.314,28.591-17.314,28.591l-2.333,26.72L461.595,515.161z"/>
<path fill-rule="evenodd" clip-rule="evenodd" fill="#FCFDFE" d="M379.632,1005.714c-10.773,0.003-19.649-2.458-30.423-2.455
	c-1.53,0-0.049-1.388,0.598-2.406c0.648-1.019,1.497-1.839,0.769-1.05c4.889-0.358,4.005-7.012,5.176-6.849
	c1.666,0.235,3.969,3.579,3.595,1.89c-0.439-1.981-0.028-0.653,0.591-2.865c1.181-4.228,1.537-7.651,1.537-7.651l4.799-12.622
	c0,0,2.4-6.468,2.954-9.037c1.266-3.643,8.556-12.089,14.952-13.216c2.953-0.52,2.616,6.057,4.604,8.695
	c2.208,2.932,5.935,1.802,6.511,3.382c0,2.415-0.732,5.033-1.834,7.721c-2.746,6.705-7.788,13.847-9.466,19.361
	C381.892,995.529,380.944,999.943,379.632,1005.714z"/>
<g>
	<path fill-rule="evenodd" clip-rule="evenodd" fill="#232222" d="M974.955,419.858c3.554-1.105,7.352-3.625,10.626-3.104
		c51.81,8.238,88.063,35.41,106.203,83.125c15.512,40.804,18.149,81.909-3.854,121.458c-23.394,42.039-60.764,63.578-110.384,66.516
		c-27.261,1.611-53.169-4.664-79.357-9.869c-1.757-0.353-3.558-0.554-5.348-0.703c-0.986-0.08-1.995,0.102-4.315,0.247
		c3.972,9.64,7.445,18.831,11.497,27.782c17.11,37.81,34.016,75.722,44.66,115.785c6.918,26.027,10.403,52.462,6.132,79.406
		c-1.906,12.021,0.102,23.696,5.13,34.824c9.104,20.145,18.336,40.235,27.507,60.349c8.679,19.038,5.949,24.08-15.489,25.015
		c-35.045,1.526-70.127,2.722-105.198,2.963c-9.998,0.066-20.104-3.364-29.994-5.816c-3.071-0.76-5.592-3.585-8.362-5.464
		c0.304-0.788,0.61-1.574,0.914-2.363c10.492,1.408,20.99,2.773,31.474,4.228c10.372,1.445,20.555,1.598,30.04-3.637
		c7.172,1.03,14.342,2.06,21.511,3.089c5.781,0.315,11.578,1.036,17.338,0.82c4.864-0.181,8.757-2.443,9.365-7.823
		c3.456,0.008,6.909,0.011,10.361,0.02c13.089,3.244,21.047-2.309,18.522-14.652c-2.074-10.145-6.5-20.042-11.321-29.36
		c-1.586-3.068-7.674-3.989-11.704-5.891c-3.016,0.287-6.036,0.576-9.053,0.866c-10.533-21.086-21.066-42.172-31.601-63.257
		c0.096-22.79,1.84-45.711-0.163-68.328c-2.127-24.04-6.604-48.06-12.249-71.601c-6.343-26.442-14.936-52.4-23.048-78.426
		c-1.476-4.743-5.351-8.805-8.118-13.178c-0.181,12.849,1.6,24.607,1.639,36.375c0.044,12.068-0.396,24.366-2.73,36.18
		c-10.307,52.187-36.872,93.692-87.032,119.31c-35.557,18.16-92.403,13.847-124.081-21.132c-1.93-2.131-2.922-5.045-4.353-7.592
		c3.333,2.002,6.435,4.584,10.037,5.914c20.499,7.58,41.789,11.148,63.771,10.781c3.818-0.557,7.64-1.121,11.458-1.666
		c16.45-2.355,32.268-4.904,46.436-15.355c18.785-13.858,32.643-30.61,41.985-51.191c11.338-24.978,15.036-51.24,14.3-78.266
		c-0.529-19.361-2.158-38.646-9.76-56.74c-2.78-6.616-6.981-14.688-12.934-17.67c-15.125-7.584-25.721-18.912-34.845-31.877
		c-21.647-30.762-42.934-61.76-50.215-99.27c-0.244-1.26-1.362-2.363-2.938-4.974c-2.264,5.671-4.642,9.805-5.567,14.221
		c-8.936,42.498-17.708,85.027-26.32,127.586c-1.991,9.842-4.286,19.803-4.561,29.754c-0.722,25.961-0.048,51.957-0.64,77.924
		c-0.339,14.825,3.18,28.715,8.121,42.479c-2.689,0.783-5.377,1.561-8.064,2.338c-9.898-5.108-13.768-14.039-16.834-23.725
		c-7.797-24.643-10.999-50.113-9.962-75.492c1.388-34.031,3.092-68.433,9.547-101.802c10.652-55.064,24.673-109.555,38.408-164.025
		c5.225-20.719,10.653-41.951,27.479-59.053c-11.76-9.653-23.337-19.068-34.799-28.611c-4.836-4.024-9.421-8.321-14.12-12.494
		c3.152-7.582,9.115-12.473,16.83-15.236c11.608-4.159,23.372-7.911,35.069-11.835c4.753-1.01,9.461-2.39,14.27-2.932
		c5.365-0.605,6.221-3.457,5.365-7.71c-0.389-1.933-0.831-3.857-1.257-5.784c-5.177-23.419-10.192-46.983-24.264-67.322
		c-4.228-6.11-10.637-10.828-16.049-16.183l0.07,0.035c-1.007-0.562-2.014-1.125-3.021-1.687l0.066,0.062
		c-0.544-0.506-1.092-1.014-1.642-1.52l0.076,0.075c-0.618-0.51-1.236-1.021-1.854-1.532c-2.663-1.923-5.325-3.846-7.99-5.771
		c-2.019-6.368,3.628-5.477,6.737-5.967c14.362-2.263,25.762,3.109,34.54,13.767c13.664,16.59,22.671,35.325,25.589,56.334
		c1.938,13.925,2.64,28.009,3.959,42.735c7.761,0.505,16.186,0.913,24.577,1.662c3.8,0.339,7.742,0.848,11.268,2.165
		c9.83,3.678,13.533,12.972,7.137,20.95c-9.855,12.296-20.499,24.121-31.847,35.156c-5.93,5.766-10.139,9.845-6.189,18.822
		c4.118,9.369,2.021,19.569-1.608,29.011c-3.627,9.431-2.826,17.987,2.108,26.967c13.068,23.774,25.434,47.902,38.286,71.787
		c2.654,4.941,6.215,9.435,9.909,14.959c1.27-2.855,2.014-4.53,3.022-6.796c1.227,1.405,2.08,2.379,2.932,3.353
		c2.789-0.927,6.182-1.171,8.278-2.881c33.289-27.145,72.851-30.676,113.924-27.724c11.806,0.848,23.449,3.772,35.436,5.792
		c0-3.477,0-6.537,0-9.597c0.825-0.431,1.647-0.863,2.473-1.293c9.694,9.038,20.807,17.055,28.797,27.317
		c19.843,25.486,32.613,52.888,14.299,84.623c-1.099,1.896-3.435,3.13-5.196,4.673c3.496-10.627,7.164-21.248,4.338-32.632
		c-7.405-29.82-26.843-49.083-57.046-57.775c-32.388-9.321-65.175-7.041-97.847-0.742c-15.146,2.92-29.088,8.196-40.13,19.107
		c-7.301,7.216-7.534,9.555-2.339,18.074c3.716,6.092,7.125,12.357,10.67,18.545c-1.714-1.768-3.728-3.348-5.088-5.335
		c-6.924-10.104-14.205-20.027-20.393-30.541c-18.58-31.583-36.657-63.442-55.076-95.113c-2.745-4.715-6.291-8.998-9.466-13.48
		c-0.98,0.169-1.956,0.337-2.934,0.506c-2.485,8.921-4.971,17.842-7.453,26.765c-4.11,14.667-8.221,29.336-12.332,44.004
		c-0.513,3.657-1.03,7.313-1.541,10.972c0.323,1.846,0.168,3.944,1.045,5.502c9.336,16.542,18.819,33.006,28.35,49.443
		c0.435,0.749,1.71,1.046,2.593,1.555l-0.1-0.117c4.177,6.444,8.356,12.889,12.535,19.333l0.024,0.045
		c1.061,0.88,2.119,1.759,3.18,2.639c3.69,5.518,7.377,11.037,11.063,16.556c0.937,0.572,1.875,1.142,2.812,1.713l-0.135-0.153
		c0.559,0.998,1.118,1.997,1.677,2.996l-0.015-0.016c0.529,0.515,1.053,1.029,1.58,1.546l-0.033-0.019
		c1.546,1.519,3.093,3.039,4.641,4.559l-0.072-0.085c0.546,0.522,1.088,1.045,1.634,1.569l-0.093-0.094
		c0.545,0.528,1.089,1.056,1.639,1.584l-0.13-0.139c0.556,0.997,1.112,1.993,1.673,2.991l0.008,0.003
		c0.525,0.51,1.051,1.02,1.575,1.528l-0.037-0.034c0.529,0.51,1.059,1.02,1.584,1.531l-0.042-0.042
		c0.534,0.511,1.065,1.023,1.597,1.534l-0.052-0.051c0.529,0.513,1.063,1.028,1.594,1.542l-0.037-0.024
		c2.071,1.987,4.141,3.977,6.213,5.965l-0.029-0.038c0.533,0.512,1.064,1.023,1.598,1.535l-0.045-0.044
		c0.529,0.51,1.061,1.02,1.592,1.53l-0.037-0.036c0.527,0.504,1.061,1.009,1.588,1.514l-0.039-0.073
		c0.55,0.768,1.098,1.529,1.646,2.297l0.109,0.57l0.602,0.1c1.301,0.561,2.601,1.121,3.899,1.681l-0.168-0.087
		c1.09,1.479,2.182,2.958,3.272,4.435c4.255,2.843,8.758,5.397,12.728,8.568c17.811,14.218,38.315,23.243,60.128,30.204
		c27.245,8.695,55.287,7.199,83.253,7.098c2.239-0.008,4.474-1.439,6.969-2.3c-0.787-2.07-1.091-3.272-1.676-4.333
		c-1.923-3.484-3.986-6.898-5.936-10.368c-3.474-6.186-2.365-8.351,4.957-9.3c2.006-0.262,4.094,0.081,6.145,0.158
		c7.959,0.303,15.965,1.267,23.868,0.759c12.578-0.808,24.17-4.127,32.113-14.872c12.847-17.374,25.079-34.394,26.175-57.271
		c1.562-32.638-0.963-63.881-17.709-93.293c-10.187-17.884-22.859-32.144-43.854-38.062c-7.381-2.081-14.803-4.04-22.152-6.225
		c-3.699-1.102-7.286-2.58-12.295-4.384c4.07-3.387,6.615-5.505,10.688-8.893C984.517,419.858,979.734,419.858,974.955,419.858z"/>
	<path fill-rule="evenodd" clip-rule="evenodd" fill="#77787A" d="M206.458,515.122c-7.9-37.682-12.999-75.174,6.95-111.283
		c25.84-46.775,67.162-70.831,120.965-78.021c48.685-6.507,87.071,10.451,116.977,46.063c17.613,20.975,31.583,44.471,42.336,69.513
		c0.915,2.131,0.983,6.366-0.292,7.216c-2.428,1.616-6.557,2.703-9.178,1.82c-4.456-1.502-8.393-4.565-12.371-7.217
		c-6.383-4.254-12.619-8.706-18.917-13.075c-1.133-1.791-1.864-4.052-3.458-5.304c-34.037-26.76-72.132-40.846-116.673-33.026
		c-11.69,2.053-22.552,6.65-30.027,16.391c-24.681,24.183-34.312,53.401-27.526,86.242c5.771,27.936,40.125,53.328,69.752,55.047
		c39.735,2.305,74.818-10.536,108.06-29.751c1.765-1.02,3.469-2.133,5.222-3.175c0.434-0.258,0.94-0.405,3.315-1.401
		c1.788,5.14,3.518,10.113,5.512,15.847c31.427-17.536,57.547-41.612,80.336-69.326c-0.036,1.232,0.052,2.481-0.129,3.694
		c-3.57,23.776-7.22,47.541-10.734,71.325c-1.181,7.996-2.026,16.035-3.024,24.058c-4.179,2.146-8.356,4.291-12.533,6.436
		c-1.979,1.531-3.96,3.064-5.94,4.597l0.013-0.023c-9.362,3.753-18.684,7.609-28.099,11.243
		c-51.361,19.831-104.472,30.016-159.757,22.706c-44.535-5.886-78.763-28.658-103.392-64.717
		C217.985,532.415,212.251,523.75,206.458,515.122z"/>
	<path fill-rule="evenodd" clip-rule="evenodd" fill="#244586" d="M553.714,715.975c8.894,16.609,16.853,33.763,26.899,49.703
		c15.194,24.108,36.037,43.534,59.511,60.34c1.426,2.547,2.418,5.461,4.348,7.592c31.678,34.979,88.524,39.292,124.081,21.132
		c50.16-25.617,76.726-67.123,87.032-119.31c2.334-11.813,2.774-24.111,2.73-36.18c-0.039-11.768-1.819-23.526-1.639-36.375
		c2.768,4.373,6.643,8.435,8.118,13.178c8.112,26.025,16.705,51.983,23.048,78.426c5.646,23.541,10.122,47.561,12.249,71.601
		c2.003,22.617,0.259,45.538,0.163,68.328c-1.903-3.663-3.814-7.325-5.925-11.378c-8.232,14.473-5.38,36.493,5.843,48.929
		c2.025,2.243,3.837,4.678,5.997,6.78c7.877,7.678,15.857,15.255,24.819,23.842c0.527-3.015,0.694-3.964,0.866-4.916
		c3.017-0.29,6.037-0.579,9.053-0.866c-0.393,5.822-1.647,11.733-0.985,17.44c1.251,10.884,3.593,21.647,5.488,32.463
		c-3.452-0.009-6.905-0.012-10.361-0.022c-3.259-12.29-5.808-24.817-10.187-36.726c-1.424-3.88-8.358-9.132-11.445-8.423
		c-4.248,0.978-10.291,7.072-10.217,10.878c0.269,13.813-6.652,28.781,5.146,41.276c-7.169-1.029-14.339-2.059-21.511-3.089
		c-0.982-9.949-1.688-19.936-3.002-29.844c-2.022-15.215-5.125-20.932-21.813-19.285c-3.961-21.564-6.957-43.35-12.23-64.616
		c-3.463-13.993-9.289-27.662-15.8-40.672c-4.662-9.312-13.76-10.812-23.14-5.389c-13.817,7.987-23.579,19.646-30.353,33.616
		c-0.591,1.222-0.339,2.825-0.479,4.25l-0.132,0.021c-0.527,0.723-1.057,1.445-1.582,2.168c-8.02,13.503-8.581,28.273-7.961,43.244
		c0.604,14.599,1.69,29.193,1.677,43.789c-0.019,15.573-5.434,20.44-21.319,20.621c-19.618,0.224-39.235,0.27-58.849,0.39
		c-3.734-2.48-7.681-4.718-11.112-7.537c-2.097-1.721-3.417-4.348,1.424-4.669c4.71,0.203,10.052,1.887,14.018,0.335
		c13.374-5.236,21.712-15.446,25.667-28.691c8.37-28.026,4.535-54.145-13.631-77.99c-3.306-4.336-7.042-5.575-12.563-4.869
		c-13.685,1.74-27.442,2.942-41.185,4.204c-3.835,0.353-7.757-0.138-11.576,0.278c-8.344,0.903-10.432,3.396-8.341,11.079
		c2.135,7.841,5.165,15.462,7.804,23.177c2.884,13.253,5.769,26.506,8.653,39.762c-1.459,8.206-2.336,16.558-4.528,24.576
		c-2.538,9.287-8.652,15.975-19.425,16.207c-18.212,0.391-36.438,0.069-54.652,0.41c-4.825,0.089-9.628,1.494-14.442,2.295
		c-2.574-2.889-5.15-5.773-8.703-9.757c3.886-0.571,5.595-0.82,7.301-1.07c7.804-0.074,14.964-1.056,20.363-7.709
		c5.205-6.41,11.76-11.811,16.946-18.232c11.32-14.013,18.941-29.898,12.259-47.494c-7.449-19.617-17.326-38.397-26.45-57.403
		c-0.923-1.928-3.762-3.218-5.971-4.319c-11.171-5.563-22.428-10.964-33.657-16.425c-0.679-2.765-1.266-5.556-2.059-8.289
		c-0.936-3.215-3.34-6.564-2.876-9.536c3.023-19.396,6.549-38.721,10.119-58.037C547.899,744.756,550.875,730.375,553.714,715.975z"
		/>
	<path fill-rule="evenodd" clip-rule="evenodd" fill="#77787A" d="M1024.204,583.275c1.762-1.543,4.098-2.777,5.196-4.673
		c18.314-31.735,5.544-59.137-14.299-84.623c-7.99-10.262-19.103-18.279-28.797-27.317c-0.825,0.431-1.647,0.862-2.473,1.293
		c0,3.06,0,6.12,0,9.597c-11.986-2.02-23.63-4.943-35.436-5.792c-41.073-2.953-80.635,0.579-113.924,27.724
		c-2.097,1.71-5.489,1.954-8.278,2.881c15.321-45.782,54.821-63.653,97.77-76.113c16.188-4.698,33.945-4.41,50.991-6.394
		c4.779-0.001,9.562-0.001,16.272-0.001c-4.073,3.388-6.618,5.506-10.688,8.893c5.009,1.804,8.596,3.282,12.295,4.384
		c7.35,2.186,14.771,4.145,22.152,6.225c20.994,5.917,33.667,20.178,43.854,38.062c16.746,29.412,19.271,60.656,17.709,93.293
		c-1.096,22.877-13.328,39.898-26.175,57.271c-7.943,10.745-19.535,14.064-32.113,14.872c-7.903,0.508-15.909-0.456-23.868-0.759
		c-2.051-0.077-4.139-0.42-6.145-0.158c-7.322,0.949-8.431,3.114-4.957,9.3c1.949,3.47,4.013,6.884,5.936,10.368
		c0.585,1.061,0.889,2.263,1.676,4.333c-2.495,0.86-4.729,2.292-6.969,2.3c-27.966,0.102-56.008,1.598-83.253-7.098
		c-21.813-6.961-42.317-15.986-60.128-30.204c-3.97-3.171-8.473-5.726-12.728-8.568c-1.091-1.477-2.183-2.955-3.272-4.435
		l0.168,0.087c-1.301-0.56-2.599-1.12-3.899-1.681l-0.602-0.1l-0.109-0.57c-0.548-0.768-1.096-1.529-1.646-2.297l0.039,0.073
		c-0.527-0.505-1.061-1.01-1.588-1.514l0.037,0.036c-0.531-0.51-1.063-1.02-1.592-1.53l0.045,0.044
		c-0.533-0.512-1.064-1.023-1.598-1.535l0.029,0.038c-2.072-1.988-4.142-3.978-6.213-5.965l0.037,0.024
		c-0.531-0.513-1.064-1.03-1.594-1.542l0.052,0.051c-0.531-0.511-1.063-1.022-1.597-1.534l0.042,0.042
		c-0.525-0.511-1.055-1.021-1.584-1.531l0.037,0.034c-0.524-0.508-1.05-1.018-1.575-1.528c0,0-0.008-0.003-0.008-0.003
		c-0.561-0.997-1.117-1.993-1.673-2.991l0.13,0.139c-0.55-0.529-1.094-1.056-1.639-1.584c0,0,0.093,0.094,0.093,0.092
		c-0.546-0.522-1.092-1.045-1.634-1.567l0.072,0.085c-1.548-1.52-3.095-3.04-4.641-4.559l0.033,0.019
		c-0.527-0.517-1.051-1.031-1.58-1.546c0,0,0.015,0.016,0.017,0.016c-0.561-0.997-1.12-1.996-1.679-2.996l0.135,0.153
		c-0.937-0.571-1.875-1.141-2.812-1.713c-3.687-5.519-7.373-11.038-11.063-16.556c-1.059-0.88-2.119-1.759-3.18-2.639l-0.024-0.045
		c-4.179-6.444-8.358-12.89-12.535-19.333c0,0,0.1,0.117,0.098,0.117c-0.143-0.937-0.035-2-0.47-2.787
		c-9.628-17.409-19.299-34.796-29.047-52.144c-0.411-0.737-1.629-1.056-2.469-1.57c0.511-3.658,1.028-7.315,1.541-10.972
		c1.433,2.317,2.952,4.587,4.285,6.955c16.095,28.658,34.508,55.777,57.271,80.036c15.522,16.543,33.451,29.404,56.596,34.305
		c2.762,0.585,5.619,0.772,8.433,1.145c0.261-0.592,0.517-1.182,0.779-1.774c-3.015-2.518-6.206-4.86-8.997-7.586
		c-5.727-5.599-11.396-11.27-16.779-17.17c-3.729-4.084-6.752-8.755-10.416-12.901c-21.431-24.266-40.911-49.814-55.404-78.561
		c-8.079-16.026-15.642-32.293-23.436-48.453c2.482-8.922,4.968-17.843,7.453-26.765c0.978-0.168,1.953-0.337,2.934-0.506
		c3.175,4.482,6.721,8.765,9.466,13.48c18.419,31.671,36.496,63.53,55.076,95.113c6.188,10.514,13.469,20.436,20.393,30.541
		c1.36,1.988,3.374,3.568,5.084,5.335c7.811,7.208,16.314,13.852,23.302,21.732c23.868,26.91,53.635,42.125,90.325,46.33
		C983.223,619.096,1012.86,605.979,1024.204,583.275z"/>
	<path fill-rule="evenodd" clip-rule="evenodd" fill="#83A7D8" d="M553.714,715.975c-2.839,14.4-5.814,28.781-8.479,43.21
		c-3.569,19.316-7.096,38.641-10.119,58.037c-0.464,2.972,1.94,6.321,2.876,9.536c0.793,2.733,1.38,5.524,2.059,8.289
		c-5.96-1.305-11.918-2.621-17.882-3.912c-10.822-2.344-17.736-0.252-22.335,8.085c-11.175,20.26-14.284,41.658-8.366,64.063
		c-5.61,18.49,4.827,34.345,9.071,51.226c1.429,5.685,2.449,11.461,3.654,17.197c-0.949,4.563-1.963,9.111-2.818,13.686
		c-0.577,3.092-0.949,6.229,4.065,5.754c-0.495,2.455-0.988,4.907-1.478,7.362c-6.704,1.494-13.407,2.991-20.11,4.485
		c-1.024-2.759-2.207-5.47-3.037-8.28c-2.726-9.209-4.997-18.556-8.079-27.65c-2.02-5.951-5.195-11.888-13.193-11.383
		c-7.847,0.496-11.967,5.725-12.721,12.668c-1.352,12.415-1.934,24.905-2.838,37.367c-4.282,0.055-8.56,0.108-12.84,0.16
		c-0.459-5.873-0.585-11.79-1.457-17.606c-1.194-7.987-1.956-16.232-4.706-23.762c-3.967-10.858-12.424-12.092-19.249-2.584
		c-4.668,6.505-7.176,14.566-9.922,22.173c-2.557,7.096-4.152,14.509-6.169,21.782c-3.589-0.114-7.177-0.229-10.762-0.344
		c3.066-11.113,5.842-22.319,9.359-33.301c1.231-3.846,4.292-7.155,6.513-10.709c3.793-4.308,8.042-8.326,11.283-12.992
		c5.639-8.11,10.819-16.525,15.873-24.992c3.412-5.716,8.292-11.535,8.957-17.661c1.369-12.634-0.053-25.52,0.42-38.276
		c0.701-18.961,1.583-37.936,3.228-56.836c2.841-32.644,11.335-64.361,24.929-94.064c21.511-47.002,45.762-92.84,68.884-139.157
		c0.604-1.213,1.556-2.266,2.714-3.92c0.905,5.293,1.663,9.728,2.421,14.16c0.264,42.442,4.852,84.247,19.778,124.543
		C553.656,713.457,553.567,714.756,553.714,715.975z"/>
	<path fill-rule="evenodd" clip-rule="evenodd" fill="#5879AD" d="M491.468,903.282c-5.918-22.404-2.81-43.803,8.366-64.063
		c4.599-8.337,11.513-10.429,22.335-8.085c5.964,1.291,11.922,2.607,17.882,3.912c11.229,5.461,22.486,10.861,33.657,16.425
		c2.209,1.102,5.048,2.392,5.971,4.319c9.124,19.006,19,37.786,26.45,57.403c6.683,17.596-0.939,33.481-12.259,47.494
		c-5.186,6.422-11.741,11.822-16.946,18.232c-5.399,6.653-12.559,7.635-20.363,7.709c-13.757-5.231-15.119-7.552-12.552-22.101
		c1.586-8.997,3.161-18.003,5.053-26.945c2.487-11.756,0.389-23.094-2.849-34.364c-4.645-16.159-9.066-32.38-14.113-48.424
		c-3.147-10.001-9.199-11.501-16.363-3.178C502.865,866.566,491.978,882.788,491.468,903.282z"/>
	<path fill-rule="evenodd" clip-rule="evenodd" fill="#D0E0F3" d="M533.463,587.784c-0.758-4.432-1.517-8.867-2.421-14.16
		c-1.158,1.654-2.11,2.707-2.714,3.92c-23.122,46.317-47.373,92.155-68.884,139.157c-13.594,29.703-22.088,61.421-24.929,94.064
		c-1.644,18.9-2.527,37.875-3.228,56.836c-0.473,12.757,0.949,25.643-0.42,38.276c-0.665,6.126-5.545,11.945-8.957,17.661
		c-5.053,8.467-10.233,16.882-15.873,24.992c-3.241,4.666-7.49,8.685-11.283,12.992c-2.036-1.096-4.918-1.703-5.969-3.376
		c-4.656-7.396-11.017-8.231-15.458-0.53c-4.404,7.638-7.19,16.207-10.017,24.576c-1.398,4.139-0.917,8.833-2.025,13.098
		c-0.597,2.301-2.468,5.636-4.28,5.978c-2.515,0.473-6.56-0.603-8.135-2.446c-9.155-10.707-11.72-16.248-3.317-27.542
		c4.93-6.625,9.888-13.37,13.602-20.641c2.853-5.587,5.166-12.049,5.318-18.178c0.594-24.031,0.342-48.083,0.162-72.125
		c-0.046-6.39-1.375-12.771-1.396-19.155c-0.122-36.126,4.338-71.758,12.928-106.926c6.556-26.845,12.172-53.939,19.831-80.488
		c4.361-15.121,11.98-29.375,18.132-44.021c13.677-3.779,27.808-6.483,40.926-11.59c20.375-7.937,40.063-17.509,60.042-26.389
		l-0.013,0.023c1.98-1.533,3.961-3.066,5.94-4.597c4.177-2.145,8.354-4.29,12.533-6.436
		C533.525,569.764,533.494,578.775,533.463,587.784z"/>
	<path fill-rule="evenodd" clip-rule="evenodd" fill="#5879AD" d="M780.019,888.658c0.141-1.425-0.111-3.028,0.479-4.25
		c6.773-13.971,16.535-25.629,30.353-33.616c9.38-5.423,18.478-3.923,23.14,5.389c6.511,13.01,12.337,26.679,15.8,40.672
		c5.273,21.267,8.27,43.052,12.23,64.616c-4.1,13.916-8.288,27.809-12.249,41.759c-1.34,4.715-4.397,6.683-9.109,5.833
		c-7.033-1.271-14.699-1.651-20.831-4.738c-18.958-9.524-21.445-16.345-17.061-33.119c4.627-17.682,9.417-35.334,14.725-52.835
		c1.794-5.908,0.626-9.76-4.214-13.494c-5.617-4.336-10.641-9.375-16.219-13.761c-2.243-1.764-5.273-2.596-7.947-3.852
		C786.083,887.724,783.054,888.193,780.019,888.658z"/>
	<path fill-rule="evenodd" clip-rule="evenodd" fill="#244586" d="M732.003,287.73c-23.578-27.949-55.02-38.917-91.465-39.069
		c3.377-17.32,6.463-34.702,10.439-51.894c0.605-2.616,5.34-4.349,8.167-6.49c0.455,0.231,0.933,0.412,1.428,0.541
		c3.962,8.408,7.925,16.815,12.311,26.124c10.501-14.732,22.823-23.778,42.174-19.991c-2.061-3.782-3.524-6.467-4.988-9.153
		c5.412,5.355,11.821,10.073,16.049,16.183c14.071,20.339,19.087,43.903,24.264,67.322c0.426,1.927,0.868,3.851,1.257,5.784
		c0.855,4.253,0,7.105-5.365,7.71C741.464,285.34,736.756,286.72,732.003,287.73z"/>
	<path fill-rule="evenodd" clip-rule="evenodd" fill="#5879AD" d="M642.357,914.207c-2.639-7.715-5.669-15.336-7.804-23.177
		c-2.091-7.684-0.003-10.176,8.341-11.079c3.819-0.416,7.741,0.074,11.576-0.278c13.742-1.262,27.5-2.464,41.185-4.204
		c5.521-0.706,9.258,0.533,12.563,4.869c18.166,23.846,22.001,49.964,13.631,77.99c-3.955,13.245-12.293,23.455-25.667,28.691
		c-3.966,1.552-9.308-0.132-14.018-0.335c-15.391-8.495-20.335-19.25-16.281-38.036c3.169-14.692,7.501-29.147,10.891-43.8
		c0.843-3.654,1.361-8.292-0.252-11.372c-3.934-7.517-11.766-8.013-17.248-1.316c-4.099,5.005-7.034,10.876-10.813,16.15
		C646.851,910.556,644.416,912.26,642.357,914.207z"/>
	<path fill-rule="evenodd" clip-rule="evenodd" fill="#222121" d="M599.771,271.363c8.454,5.054,17.136,9.798,25.278,15.281
		c4.832,3.252,7.608,8.242,5.884,14.266c-1.69,5.905-6.255,8.163-12.349,9.602c-8.906,2.104-17.478,5.5-26.193,8.344
		c-9.099,3.5-18.103,7.403-28.325,5.976l-0.582-0.132c-1.211-0.493-2.423-0.984-3.635-1.477l0.029,0.015
		c-1.042-0.61-2.083-1.219-3.125-1.829c-12.423-11.588-19.953-26.182-26.482-41.184c-2.167-4.979-1.855-10.953-2.678-16.473
		c11.714-8.653,25.126-6.804,38.415-5.722c5.138,2.436,10.278,4.87,15.417,7.305C587.541,267.343,593.656,269.353,599.771,271.363z"
		/>
	<path fill-rule="evenodd" clip-rule="evenodd" fill="#CFDFF1" d="M527.592,263.75c0.823,5.52,0.511,11.494,2.678,16.473
		c6.53,15.002,14.06,29.596,26.483,41.186c1.041,0.609,2.084,1.219,3.124,1.827l-0.029-0.015c1.212,0.493,2.423,0.984,3.635,1.477
		c0,0,0.582,0.132,0.587,0.133c5.271,5.43,10.535,10.861,15.798,16.291c-0.303,3.132-0.11,6.398-0.989,9.374
		c-6.758,22.854-13.715,45.655-20.658,68.459c-0.265,0.87-1.018,1.603-1.543,2.4c-0.493-3.077-0.443-6.364-1.624-9.173
		c-1.269-3.018-3.696-5.587-5.617-8.351c-2.453,1.802-5.618,3.158-7.2,5.5c-2.908,4.3-4.8,9.222-7.281,13.802
		c-1.064,1.964-2.542,3.721-4.828,7.003c0.689-16.685,1.265-31.276,1.903-45.865c0.473-10.826,0.243-21.757,1.852-32.43
		c0.92-6.114,4.595-11.942,7.544-17.656c6.38-12.362,2.026-22.988-5.374-33.138c-5.724-7.851-12.288-15.188-17.443-23.355
		C512.787,268.462,515.888,264.179,527.592,263.75z"/>
	<path fill-rule="evenodd" clip-rule="evenodd" fill="#83A7D8" d="M599.771,271.363c-6.114-2.01-12.23-4.02-18.344-6.029
		c0.62-1.854,1.462-3.668,1.823-5.566c3.028-16.032,9.449-30.646,19.918-43.491c11.964-14.68,25.435-27.133,46.672-27.216
		c3.102,0.406,6.204,0.811,9.308,1.216c-2.829,2.141-7.564,3.874-8.169,6.49c-3.977,17.192-7.062,34.574-10.439,51.894
		C626.95,256.228,613.359,263.795,599.771,271.363z"/>
	<path fill-rule="evenodd" clip-rule="evenodd" fill="#262525" d="M780.019,888.658c3.035-0.465,6.064-0.935,9.097-1.396
		c0.077,2.498,1.036,5.372,0.087,7.437c-8.773,19.167-7.257,39.005-5.497,59.122c1.261,14.448,1.714,29.115,0.637,43.557
		c-0.781,10.554-6.537,14.592-17.647,14.727c-20.102,0.241-40.217-0.105-60.325-0.398c-6.171-0.089-12.805-6.261-14.521-12.814
		c19.618-0.12,39.235-0.166,58.854-0.39c15.886-0.181,21.301-5.048,21.319-20.621c0.014-14.596-1.073-29.19-1.677-43.789
		c-0.62-14.971-0.059-29.741,7.961-43.247c0.525-0.723,1.055-1.445,1.582-2.165L780.019,888.658z"/>
	<path fill-rule="evenodd" clip-rule="evenodd" fill="#D0E0F3" d="M649.839,189.062c-21.237,0.083-34.708,12.536-46.672,27.216
		c-10.469,12.845-16.89,27.459-19.918,43.491c-0.361,1.898-1.203,3.712-1.823,5.566c-5.142-2.436-10.281-4.87-15.419-7.305
		c-2.096-22.22,4.689-42.039,18.65-59.443c8.436-10.518,17.613-20.577,31.964-24.362c7.68-2.025,14.561-2.372,20.654,3.563
		C641.294,181.704,645.638,185.314,649.839,189.062z"/>
	<path fill-rule="evenodd" clip-rule="evenodd" fill="#2B2928" d="M483.853,1002.992c6.703-1.494,13.406-2.991,20.11-4.485
		c5.408,7.514,2.716,15.585-6.248,17.626c-4.727,1.076-9.698,1.584-14.564,1.612c-37.88,0.198-75.763,0.355-113.646,0.189
		c-8.507-0.037-17.394-0.723-20.747-10.626c-0.298-0.881-0.287-1.861-0.609-4.133c10.642,0.817,20.684,1.586,30.73,2.357
		c3.588,0.114,7.176,0.229,10.761,0.344c13.836,0,27.671,0,41.505-0.003c4.28-0.052,8.558-0.105,12.837-0.16
		C457.271,1004.805,470.562,1003.898,483.853,1002.992z"/>
	<path fill-rule="evenodd" clip-rule="evenodd" fill="#2E2C2B" d="M515.096,571.768c-19.979,8.879-39.667,18.452-60.042,26.389
		c-13.118,5.107-27.25,7.811-40.926,11.59c-25.857,1.853-51.742,5.462-77.566,5.101c-30.989-0.434-58.42-12.609-81.63-32.405
		c-20.608-17.575-37.38-38.047-47.443-63.047c-0.544-1.35-0.696-2.846-1.03-4.273c5.793,8.628,11.527,17.293,17.39,25.877
		c24.629,36.06,58.856,58.832,103.392,64.717c55.285,7.31,108.396-2.875,159.757-22.706
		C496.412,579.376,505.733,575.521,515.096,571.768z"/>
	<path fill-rule="evenodd" clip-rule="evenodd" fill="#282626" d="M557.962,997.457c4.814-0.801,9.617-2.206,14.442-2.295
		c18.214-0.341,36.44-0.02,54.652-0.41c10.773-0.232,16.888-6.92,19.425-16.207c2.192-8.019,3.069-16.37,4.528-24.576
		c7.569,16.053,4.661,31.371-4.854,45.461c-2.584,3.832-8.639,7.638-13.197,7.747c-21.757,0.524-43.55-0.175-65.328-0.565
		C561.602,1006.502,559.838,1001.824,557.962,997.457z"/>
	<path fill-rule="evenodd" clip-rule="evenodd" fill="#859DC0" d="M710.068,187.798c1.464,2.686,2.928,5.371,4.988,9.153
		c-19.351-3.787-31.673,5.258-42.174,19.991c-4.386-9.308-8.349-17.716-12.311-26.124c5.339-14.299,18.638-19.345,35.202-13.359
		c2.665,1.925,5.327,3.848,7.992,5.772c0.62,0.511,1.234,1.021,1.853,1.53l-0.076-0.075c0.55,0.506,1.098,1.014,1.642,1.52
		l-0.066-0.062c1.007,0.562,2.014,1.125,3.021,1.687L710.068,187.798z"/>
	<path fill-rule="evenodd" clip-rule="evenodd" fill="#302E2D" d="M302.771,408.199c7.475-9.741,18.337-14.337,30.027-16.391
		c44.541-7.82,82.636,6.266,116.673,33.026c1.593,1.252,2.325,3.513,3.458,5.304c-18.856-11.367-37.265-23.574-59.467-28.53
		c-25.114-5.604-50.21-7.976-75.205,0.404C312.987,403.778,307.928,406.121,302.771,408.199z"/>
	<path fill-rule="evenodd" clip-rule="evenodd" fill="#617FB2" d="M505.441,991.145c-5.015,0.476-4.643-2.662-4.065-5.754
		c0.854-4.574,1.869-9.123,2.818-13.686c8.243,1.651,6.227,7.663,5.36,12.656C509.137,986.776,506.872,988.893,505.441,991.145z"/>
	<path fill-rule="evenodd" clip-rule="evenodd" fill="#244586" d="M713.928,842.713c-3.063-1.729-5.921-4.026-9.214-5.108
		c-37.364-12.28-57.785-40.212-73.183-72.784c-4.373-9.252-8.375-18.665-12.545-28.009c-0.985-2.177-1.418-4.655-2.032-6.757
		c-9.422-32.14-13.904-64.576-13.508-97.957c0.255-21.598,1.779-43.184,2.734-64.774c6.153-46.758,14.99-93.084,30.349-137.849
		c13.253-38.632,28.961-76.487,43.58-114.679c4.695,4.178,9.28,8.475,14.116,12.5c11.462,9.543,23.039,18.958,34.799,28.611
		c-16.825,17.102-22.254,38.333-27.479,59.053c-13.735,54.47-27.756,108.961-38.408,164.025
		c-6.455,33.37-8.159,67.771-9.547,101.802c-1.037,25.379,2.165,50.85,9.962,75.492c3.066,9.686,6.936,18.616,16.834,23.725
		c5.563,13.106,15.646,22.318,29.227,26.615c23.682,7.497,46.69,3.604,66.341-10.531c30.697-22.078,48.295-51.289,47.64-89.391
		c-0.374-21.871-4.949-42.223-19.405-59.615c-6.351-7.643-14.629-13.212-25.353-11.037c-10.822,2.195-15.877,10.203-17.775,20.224
		c-7.379,10.612-12.181,23.205-25.553,28.881c6.545,7.947,13.022,9.37,21.309,4.153c6.322-3.98,11.851-9.121,17.728-13.746
		c23.128,20.023,23.734,65.927-8.778,84.778c-5.474,3.172-10.765,6.866-16.632,9.144c-10.228,3.975-20.844,7.032-31.296,10.477
		c-10.057,2.34-19.924,2.42-29.387-2.289c-4.941-13.764-8.46-27.653-8.121-42.479c0.592-25.967-0.082-51.963,0.64-77.924
		c0.274-9.951,2.569-19.912,4.561-29.754c8.612-42.559,17.385-85.088,26.32-127.586c0.926-4.416,3.304-8.55,5.567-14.221
		c1.575,2.611,2.693,3.714,2.938,4.974c7.281,37.51,28.567,68.508,50.215,99.27c9.124,12.965,19.72,24.293,34.845,31.877
		c5.952,2.982,10.153,11.054,12.934,17.67c7.602,18.094,9.23,37.379,9.76,56.74c0.736,27.025-2.962,53.288-14.3,78.266
		c-9.343,20.581-23.2,37.333-41.985,51.191c-14.168,10.451-29.985,13-46.436,15.355
		C721.567,841.592,717.746,842.156,713.928,842.713z M724.226,679.881c11.468-28.043,21.938-36.521,60.192-62.068
		c-13.572-3.725-26.558-10.086-40.087-4.236c-18.255,7.896-30.566,22.063-36.423,40.246
		C703.794,666.6,707.12,678.889,724.226,679.881z"/>
	<path fill-rule="evenodd" clip-rule="evenodd" fill="#859DC0" d="M688.449,777.666c9.463,4.709,19.33,4.629,29.387,2.289
		c1.492,0.232,3.055,0.869,4.463,0.64c19.58-3.195,37.364-9.981,53.007-22.279c32.697-25.703,24.453-67.283,0.345-86.832
		c-3.552-3.034-7.265-5.917-10.583-9.169c-1.701-1.672-2.693-4.012-4.009-6.049c1.898-10.018,6.953-18.025,17.775-20.221
		c10.724-2.175,19.002,3.395,25.353,11.037c14.456,17.393,19.031,37.744,19.405,59.615c0.655,38.102-16.942,67.313-47.64,89.391
		c-19.65,14.136-42.659,18.028-66.341,10.531c-13.581-4.297-23.664-13.509-29.227-26.615
		C683.072,779.227,685.76,778.449,688.449,777.666z"/>
	<path fill-rule="evenodd" clip-rule="evenodd" fill="#FAFAFA" d="M741.441,430.655c7.794,16.159,15.356,32.426,23.436,48.453
		c14.493,28.747,33.974,54.295,55.404,78.561c3.664,4.146,6.687,8.817,10.416,12.901c5.384,5.9,11.053,11.571,16.779,17.17
		c2.791,2.726,5.982,5.069,8.997,7.586c-0.263,0.592-0.519,1.182-0.779,1.774c-2.813-0.373-5.671-0.56-8.433-1.145
		c-23.145-4.901-41.073-17.762-56.596-34.305c-22.764-24.259-41.177-51.378-57.271-80.036c-1.333-2.368-2.853-4.638-4.285-6.955
		C733.221,459.991,737.331,445.322,741.441,430.655z"/>
	<path fill-rule="evenodd" clip-rule="evenodd" fill="#F8F8F9" d="M908.347,1013.687c-11.798-12.495-4.877-27.464-5.146-41.276
		c-0.074-3.806,5.969-9.9,10.217-10.878c3.087-0.709,10.021,4.543,11.445,8.423c4.379,11.908,6.928,24.436,10.187,36.726
		c-0.608,5.383-4.501,7.646-9.365,7.826C919.925,1014.723,914.128,1014.002,908.347,1013.687z"/>
	<path fill-rule="evenodd" clip-rule="evenodd" fill="#5677AB" d="M931.855,957.666c-0.172,0.952-0.339,1.901-0.866,4.916
		c-8.962-8.587-16.942-16.164-24.819-23.842c-2.16-2.103-3.972-4.537-5.997-6.78c-11.223-12.436-14.075-34.456-5.843-48.929
		c2.11,4.053,4.021,7.715,5.925,11.378C910.789,915.494,921.322,936.58,931.855,957.666z"/>
	<path fill-rule="evenodd" clip-rule="evenodd" fill="#F7F6F7" d="M945.411,1006.703c-1.896-10.815-4.237-21.579-5.488-32.463
		c-0.662-5.707,0.593-11.618,0.985-17.44c4.03,1.901,10.118,2.822,11.704,5.891c4.821,9.318,9.247,19.216,11.321,29.36
		C966.458,1004.395,958.5,1009.947,945.411,1006.703z"/>
	<path fill-rule="evenodd" clip-rule="evenodd" fill="#DCDBDB" d="M759.456,542.015c4.177,6.444,8.356,12.889,12.535,19.333
		C767.813,554.904,763.633,548.458,759.456,542.015z"/>
	<path fill-rule="evenodd" clip-rule="evenodd" fill="#DCDBDB" d="M807.625,603.025c2.071,1.987,4.141,3.977,6.213,5.965
		C811.766,607.002,809.696,605.013,807.625,603.025z"/>
	<path fill-rule="evenodd" clip-rule="evenodd" fill="#DCDBDB" d="M824.553,617.938c1.09,1.479,2.182,2.958,3.272,4.435
		C826.734,620.896,825.643,619.417,824.553,617.938z"/>
	<path fill-rule="evenodd" clip-rule="evenodd" fill="#DCDBDB" d="M792.145,586.654c1.546,1.519,3.093,3.039,4.641,4.559
		C795.237,589.693,793.69,588.173,792.145,586.654z"/>
	<path fill-rule="evenodd" clip-rule="evenodd" fill="#DCDBDB" d="M772.016,561.393c1.061,0.88,2.121,1.759,3.18,2.639
		C774.135,563.152,773.076,562.273,772.016,561.393z"/>
	<path fill-rule="evenodd" clip-rule="evenodd" fill="#244586" d="M710.139,187.833c-1.007-0.562-2.014-1.125-3.021-1.687
		C708.125,186.708,709.132,187.271,710.139,187.833z"/>
	<path fill-rule="evenodd" clip-rule="evenodd" fill="#DCDBDB" d="M799.763,594.048c0.556,0.998,1.112,1.995,1.673,2.991
		C800.875,596.041,800.318,595.044,799.763,594.048z"/>
	<path fill-rule="evenodd" clip-rule="evenodd" fill="#DCDBDB" d="M788.936,582.147c0.559,1,1.118,1.999,1.679,2.996
		C790.054,584.144,789.494,583.145,788.936,582.147z"/>
	<path fill-rule="evenodd" clip-rule="evenodd" fill="#DCDBDB" d="M786.259,580.587c0.937,0.572,1.875,1.142,2.812,1.713
		C788.134,581.729,787.195,581.159,786.259,580.587z"/>
	<path fill-rule="evenodd" clip-rule="evenodd" fill="#DCDBDB" d="M820.821,616.344c1.301,0.561,2.599,1.121,3.899,1.681
		C823.422,617.465,822.122,616.904,820.821,616.344z"/>
	<path fill-rule="evenodd" clip-rule="evenodd" fill="#244586" d="M705.619,184.762c-0.618-0.51-1.232-1.02-1.853-1.53
		C704.383,183.741,705.001,184.252,705.619,184.762z"/>
	<path fill-rule="evenodd" clip-rule="evenodd" fill="#244586" d="M707.185,186.207c-0.544-0.506-1.092-1.014-1.642-1.52
		C706.093,185.193,706.641,185.701,707.185,186.207z"/>
	<path fill-rule="evenodd" clip-rule="evenodd" fill="#DCDBDB" d="M801.443,597.042c0.525,0.51,1.051,1.02,1.575,1.528
		C802.494,598.062,801.969,597.552,801.443,597.042z"/>
	<path fill-rule="evenodd" clip-rule="evenodd" fill="#DCDBDB" d="M802.981,598.536c0.529,0.51,1.059,1.02,1.584,1.531
		C804.04,599.556,803.511,599.045,802.981,598.536z"/>
	<path fill-rule="evenodd" clip-rule="evenodd" fill="#DCDBDB" d="M804.523,600.025c0.534,0.511,1.065,1.023,1.597,1.534
		C805.589,601.048,805.058,600.536,804.523,600.025z"/>
	<path fill-rule="evenodd" clip-rule="evenodd" fill="#DCDBDB" d="M806.068,601.507c0.529,0.513,1.063,1.03,1.594,1.542
		C807.131,602.535,806.598,602.02,806.068,601.507z"/>
	<path fill-rule="evenodd" clip-rule="evenodd" fill="#DCDBDB" d="M813.809,608.952c0.533,0.512,1.064,1.023,1.598,1.535
		C814.873,609.976,814.342,609.464,813.809,608.952z"/>
	<path fill-rule="evenodd" clip-rule="evenodd" fill="#DCDBDB" d="M815.361,610.443c0.529,0.51,1.061,1.02,1.592,1.53
		C816.422,611.462,815.891,610.953,815.361,610.443z"/>
	<path fill-rule="evenodd" clip-rule="evenodd" fill="#DCDBDB" d="M816.916,611.937c0.527,0.504,1.061,1.009,1.588,1.514
		C817.977,612.945,817.443,612.44,816.916,611.937z"/>
	<path fill-rule="evenodd" clip-rule="evenodd" fill="#DCDBDB" d="M790.598,585.127c0.529,0.515,1.053,1.029,1.58,1.546
		C791.65,586.156,791.127,585.642,790.598,585.127z"/>
	<path fill-rule="evenodd" clip-rule="evenodd" fill="#DCDBDB" d="M798.254,592.603c0.545,0.528,1.089,1.055,1.639,1.584
		C799.343,593.659,798.799,593.131,798.254,592.603z"/>
	<path fill-rule="evenodd" clip-rule="evenodd" fill="#DCDBDB" d="M818.465,613.377c0.55,0.768,1.098,1.529,1.646,2.297
		C819.563,614.906,819.015,614.145,818.465,613.377z"/>
	<path fill-rule="evenodd" clip-rule="evenodd" fill="#2E2C2B" d="M521.023,567.193c-1.979,1.531-3.96,3.064-5.94,4.597
		C517.063,570.258,519.043,568.725,521.023,567.193z"/>
	<path fill-rule="evenodd" clip-rule="evenodd" fill="#82A4D2" d="M579.869,341.123c-5.264-5.43-10.527-10.861-15.798-16.291
		c10.217,1.426,19.222-2.478,28.32-5.977c-2.927,6.143-5.755,12.334-8.854,18.395C582.767,338.755,581.114,339.844,579.869,341.123z
		"/>
	<path fill-rule="evenodd" clip-rule="evenodd" fill="#5879AD" d="M779.887,888.679c-0.527,0.72-1.057,1.442-1.582,2.165
		C778.83,890.124,779.359,889.401,779.887,888.679z"/>
	<path fill-rule="evenodd" clip-rule="evenodd" fill="#FCFDFE" d="M431.146,1005.874c-13.834,0.003-27.669,0.003-41.505,0.003
		c2.021-7.273,3.616-14.687,6.172-21.782c2.746-7.606,5.254-15.668,9.922-22.173c6.825-9.508,15.281-8.274,19.249,2.584
		c2.75,7.529,3.512,15.774,4.706,23.762C430.56,994.084,430.687,1000.001,431.146,1005.874z"/>
	<path fill-rule="evenodd" clip-rule="evenodd" fill="#FCFDFE" d="M483.853,1002.992c-13.291,0.906-26.582,1.813-39.87,2.722
		c0.906-12.462,1.489-24.952,2.84-37.367c0.754-6.943,4.875-12.172,12.721-12.668c7.998-0.505,11.173,5.432,13.193,11.383
		c3.082,9.095,5.353,18.441,8.079,27.65C481.646,997.522,482.829,1000.233,483.853,1002.992z"/>
	<path fill-rule="evenodd" clip-rule="evenodd" fill="#82A4D2" d="M563.483,324.699c-1.211-0.493-2.423-0.984-3.635-1.477
		C561.061,323.715,562.272,324.206,563.483,324.699z"/>
	<path fill-rule="evenodd" clip-rule="evenodd" fill="#82A4D2" d="M559.878,323.237c-1.04-0.608-2.083-1.218-3.124-1.827
		C557.795,322.018,558.836,322.627,559.878,323.237z"/>
	<path fill-rule="evenodd" clip-rule="evenodd" fill="#849CC0" d="M724.226,679.881c-17.105-0.992-20.432-13.281-16.317-26.059
		c5.856-18.184,18.168-32.35,36.423-40.246c13.529-5.85,26.515,0.512,40.087,4.236C746.163,643.359,735.693,651.838,724.226,679.881
		z"/>
	<path fill-rule="evenodd" clip-rule="evenodd" fill="#EBEDF3" d="M775.65,671.483c24.108,19.549,32.353,61.129-0.345,86.832
		c-15.643,12.298-33.427,19.084-53.007,22.279c-1.408,0.229-2.971-0.407-4.463-0.64c10.452-3.444,21.068-6.502,31.296-10.477
		c5.867-2.277,11.158-5.972,16.632-9.144c32.513-18.852,31.906-64.755,8.778-84.778C774.91,674.199,775.28,672.84,775.65,671.483z"
		/>
	<path fill-rule="evenodd" clip-rule="evenodd" fill="#131416" d="M775.65,671.483c-0.37,1.356-0.74,2.716-1.108,4.073
		c-5.877,4.625-11.405,9.766-17.728,13.746c-8.286,5.217-14.764,3.794-21.309-4.153c13.372-5.676,18.174-18.269,25.553-28.881
		c1.315,2.034,2.308,4.374,4.009,6.046C768.386,665.566,772.099,668.449,775.65,671.483z"/>
	<path fill-rule="evenodd" clip-rule="evenodd" fill="#859DC0" d="M533.556,560.754c0.998-8.019,1.843-16.059,3.024-24.054
		c3.515-23.784,7.164-47.549,10.734-71.325c0.181-1.213,0.093-2.462,0.129-3.694c3.077-13.441,6.158-26.883,9.235-40.326
		c0.525-0.797,1.278-1.53,1.543-2.4c6.942-22.804,13.899-45.605,20.658-68.459c0.879-2.975,0.686-6.242,0.989-9.374
		c1.246-1.279,2.898-2.368,3.667-3.873c3.099-6.061,5.927-12.252,8.854-18.395c8.715-2.844,17.287-6.241,26.193-8.344
		c6.094-1.438,10.658-3.696,12.349-9.602c1.724-6.023-1.052-11.013-5.884-14.266c-8.143-5.482-16.825-10.227-25.278-15.281
		c13.589-7.568,27.179-15.135,40.767-22.702c36.446,0.152,67.887,11.12,91.465,39.069c-11.697,3.925-23.461,7.677-35.069,11.835
		c-7.715,2.763-13.678,7.654-16.826,15.23c-14.618,38.192-30.326,76.047-43.58,114.679c-15.359,44.765-24.196,91.091-30.349,137.849
		c-0.037,0.842-0.076,1.495-0.098,2.174c-0.046,1.365-0.144,2.609-0.196,4.126c-0.098,2.875-0.253,5.606-0.421,8.38
		c-0.086,1.391-0.145,2.781-0.219,4.174c-0.397,7.571-0.832,15.088-1.12,22.647c-0.06,1.568-0.153,3.316-0.199,4.885
		c-0.038,1.233-0.101,2.369-0.13,3.604c-0.683,28.641,0.875,57.496,6.842,85.56c2.469,11.61,4.679,22.565,8.347,33.938
		c4.17,9.344,8.172,18.757,12.545,28.009c15.398,32.572,35.818,60.504,73.183,72.784c3.293,1.082,6.15,3.379,9.214,5.108
		c-21.982,0.367-43.272-3.201-63.771-10.781c-3.603-1.33-6.704-3.912-10.032-5.914c-23.474-16.806-44.317-36.231-59.511-60.34
		c-10.046-15.94-18.005-33.094-26.899-49.703c-0.147-1.219-0.058-2.518-0.473-3.647c-14.927-40.296-19.514-82.101-19.778-124.543
		C533.494,578.775,533.525,569.764,533.556,560.754z"/>
	<path fill-rule="evenodd" clip-rule="evenodd" fill="#F8F8F9" d="M850.849,1014.547c-0.396-0.418-25.526-4.54-25.526-4.54
		l2.138-3.123c0,0,19.812,2.165,19.477,1.013c-3.326-11.412,7.313-26.466,11.795-35.309c0.75-1.434,0.69-3.594,1.244-5.606
		c0.79-2.892,2.045-5.513,2.045-5.513s3.548-0.688,4.323-0.637c3.479,0.232,13.465,1.199,14.89,5.079
		c4.378,11.908,3.878,29.412,7.139,41.701c-0.61,5.384-5.475,8.535-10.34,8.716C872.272,1016.541,856.629,1014.859,850.849,1014.547
		z"/>
</g>
<path fill-rule="evenodd" clip-rule="evenodd" fill="#FFFFFF" d="M756.312,540.295c0.405,0.737,2.624,2.175,3.244,1.837
	c0,0,0-0.555,0-1.039c0-0.36,0.105-0.963-0.1-1.331l-5.04-9.422l-5.193-8.79l-10.313-18.802l-3.613-6.171l-4.693-8.607
	c-0.184-0.398-0.635-0.853-0.866-1.128c-0.209-0.249-1.858-1.379-2.169-1.21l0.197,1.641c0.121,0.611,0.159,2.775,0.562,3.512
	l3.296,5.675l4.666,8.205L756.312,540.295z"/>
<g>
	<g>
		<path fill="#232222" d="M828.791,499.821c-1.626-2.236,2.135-6.854,3.117-8.727c1.301-2.479,2.775-4.766,4.429-7.026
			c3.811-5.209,8.207-10.096,12.637-14.782c6.909-7.31,14.617-13.538,23.097-18.905c10.693-6.769,22.308-12.858,34.539-16.337
			c11.967-3.404,24.267-6.693,36.511-8.941c7.939-1.458,16.162-1.821,24.202-2.404c2.817-0.205,5.63-0.419,8.445-0.657
			c2.685-0.227,5.371-0.35,8.065-0.375c2.515-0.024,4.911,1.125,7.395,1.417c3.198,0.375,3.162-4.629,0-5
			c-1.987-0.233-3.828-1.163-5.848-1.306c-3.206-0.229-6.413,0.02-9.612,0.265c-3.127,0.239-6.251,0.498-9.379,0.724
			c-8.46,0.614-17.04,1.127-25.395,2.662c-12.868,2.363-26.135,5.648-38.587,9.655c-14.189,4.566-27.532,12.057-39.734,20.489
			c-9.494,6.562-17.656,15.186-25.048,23.975c-4.086,4.858-7.797,9.761-10.752,15.393c-2.018,3.846-5.466,8.189-2.398,12.405
			C826.351,504.924,830.692,502.434,828.791,499.821L828.791,499.821z"/>
	</g>
</g>
</svg>
