<?xml version="1.0" encoding="iso-8859-1"?>
<!-- Generator: Adobe Illustrator 16.0.0, SVG Export Plug-In . SVG Version: 6.00 Build 0)  -->
<!DOCTYPE svg PUBLIC "-//W3C//DTD SVG 1.1//EN" "http://www.w3.org/Graphics/SVG/1.1/DTD/svg11.dtd">
<svg version="1.1" id="Capa_1" xmlns="http://www.w3.org/2000/svg" xmlns:xlink="http://www.w3.org/1999/xlink" x="0px" y="0px"
	 width="433.597px" height="433.598px" viewBox="0 0 433.597 433.598" style="enable-background:new 0 0 433.597 433.598;"
	 xml:space="preserve">
<g>
	<g>
		<path d="M216.804,47.997c29.915,0,62.1-5.406,62.1-17.274c0-11.864-32.185-17.275-62.1-17.275
			c-29.911,0-62.104,5.412-62.104,17.275C154.7,42.591,186.908,47.997,216.804,47.997z M216.804,19.045
			c36.545,0,56.496,7.709,56.496,11.671c0,3.961-19.951,11.672-56.496,11.672c-36.557,0-56.5-7.71-56.5-11.672
			C160.304,26.755,180.264,19.045,216.804,19.045z"/>
		<path d="M216.804,433.598c16.846,0,33.995-0.953,49.81-2.815c0.011,0,0.023,0.011,0.023,0.011c0.033,0,0.053-0.021,0.091-0.021
			C304.186,426.374,334,416.891,334,402.87V30.717C334,10.751,273.618,0,216.798,0C159.978,0,99.597,10.769,99.597,30.717V402.87
			C99.604,422.837,159.983,433.598,216.804,433.598z M269.449,424.848V152.59c0-1.536-1.26-2.803-2.802-2.803
			c-1.536,0-2.802,1.267-2.802,2.803v272.925c-14.02,1.547-29.834,2.466-47.041,2.466c-65.762,0-111.597-13.226-111.597-25.11
			V40.651c16.216,13.565,65.088,20.783,111.597,20.783c3.562,0,7.149-0.044,10.739-0.124v187.577c0,1.532,1.247,2.802,2.802,2.802
			c1.521,0,2.802-1.27,2.802-2.802V61.16c10.463-0.37,20.848-1.11,30.722-2.208c0,0.101-0.046,0.156-0.046,0.251v38.249
			c0,1.541,1.28,2.802,2.802,2.802c1.54,0,2.802-1.262,2.802-2.802V59.204c0-0.32-0.094-0.588-0.187-0.876
			c26.706-3.332,49.146-9.283,59.166-17.655v362.208C328.411,411.22,305.722,420.227,269.449,424.848z M216.804,5.603
			c65.755,0,111.602,13.229,111.602,25.114s-45.847,25.114-111.602,25.114c-65.762,0-111.597-13.234-111.597-25.114
			C105.207,18.837,151.053,5.603,216.804,5.603z"/>
		<path d="M291.987,132.047c-1.546,0-2.802,1.267-2.802,2.802v120.476c0,1.536,1.256,2.8,2.802,2.8c1.54,0,2.802-1.264,2.802-2.8
			V134.849C294.789,133.314,293.527,132.047,291.987,132.047z"/>
		<path d="M312.531,86.419c-1.54,0-2.802,1.261-2.802,2.802v45.628c0,1.54,1.262,2.802,2.802,2.802c1.536,0,2.802-1.262,2.802-2.802
			V89.221C315.333,87.675,314.067,86.419,312.531,86.419z"/>
		<path d="M201.394,33.518h28.951c1.521,0,2.802-1.261,2.802-2.801c0-1.535-1.28-2.802-2.802-2.802h-28.951
			c-1.546,0-2.802,1.267-2.802,2.802C198.592,32.257,199.858,33.518,201.394,33.518z"/>
		<path d="M306.927,325.273c-1.539,0-2.801,1.251-2.801,2.801v44.918c0,1.538,1.262,2.802,2.801,2.802
			c1.536,0,2.802-1.264,2.802-2.802v-44.918C309.729,326.524,308.463,325.273,306.927,325.273z"/>
		<path d="M201.394,231.509c-1.546,0-2.802,1.259-2.802,2.802v168.56c0,1.549,1.256,2.802,2.802,2.802
			c1.545,0,2.801-1.253,2.801-2.802v-168.56C204.195,232.768,202.939,231.509,201.394,231.509z"/>
		<path d="M157.502,366.45c-1.546,0-2.802,1.268-2.802,2.802v19.61c0,1.55,1.256,2.801,2.802,2.801c1.547,0,2.802-1.251,2.802-2.801
			v-19.61C160.304,367.718,159.049,366.45,157.502,366.45z"/>
		<path d="M139.756,182.477c-1.546,0-2.802,1.268-2.802,2.802v193.317c0,1.54,1.256,2.802,2.802,2.802s2.802-1.262,2.802-2.802
			V185.279C142.558,183.745,141.302,182.477,139.756,182.477z"/>
		<path d="M139.756,141.382c-1.546,0-2.802,1.267-2.802,2.802v27.081c0,1.541,1.256,2.802,2.802,2.802s2.802-1.261,2.802-2.802
			v-27.081C142.558,142.649,141.302,141.382,139.756,141.382z"/>
		<path d="M143.494,104.031c-1.545,0-2.801,1.266-2.801,2.802v21.478c0,1.541,1.256,2.802,2.801,2.802
			c1.546,0,2.802-1.261,2.802-2.802v-21.478C146.295,105.297,145.04,104.031,143.494,104.031z"/>
		<path d="M117.343,136.95c-1.546,0-2.802,1.267-2.802,2.802v163.199c0,1.54,1.256,2.802,2.802,2.802
			c1.547,0,2.803-1.262,2.803-2.802V139.752C120.146,138.217,118.89,136.95,117.343,136.95z"/>
		<path d="M157.502,155.391c-1.546,0-2.802,1.266-2.802,2.801v103.664c0,1.537,1.256,2.802,2.802,2.802
			c1.547,0,2.802-1.265,2.802-2.802V158.192C160.304,156.657,159.049,155.391,157.502,155.391z"/>
	</g>
</g>
<g>
</g>
<g>
</g>
<g>
</g>
<g>
</g>
<g>
</g>
<g>
</g>
<g>
</g>
<g>
</g>
<g>
</g>
<g>
</g>
<g>
</g>
<g>
</g>
<g>
</g>
<g>
</g>
<g>
</g>
</svg>
