<?xml version="1.0" encoding="iso-8859-1"?>
<!-- Generator: Adobe Illustrator 18.1.1, SVG Export Plug-In . SVG Version: 6.00 Build 0)  -->
<svg version="1.1" id="Capa_1" xmlns="http://www.w3.org/2000/svg" xmlns:xlink="http://www.w3.org/1999/xlink" x="0px" y="0px"
	 viewBox="0 0 163.593 163.593" style="enable-background:new 0 0 163.593 163.593;" xml:space="preserve">
<g id="_x32__5_">
	<g>
		<polygon style="fill-rule:evenodd;clip-rule:evenodd;" points="152.049,102.725 151.169,100.424 129.862,108.578 114.654,99.653 
			147.329,86.15 146.389,83.874 111.99,98.089 84.235,81.8 112.044,65.606 146.397,79.937 147.344,77.664 114.714,64.051 
			129.952,55.177 151.232,63.402 152.119,61.106 132.677,53.59 153.092,41.702 151.853,39.575 131.439,51.463 134.501,30.843 
			132.066,30.481 128.715,53.049 113.476,61.924 117.746,26.823 115.302,26.525 110.806,63.478 83.027,79.655 83.027,47.505 
			112.695,25.026 111.208,23.064 83.027,44.416 83.027,26.78 100.842,12.526 99.303,10.605 83.027,23.628 83.027,0 80.566,0 
			80.566,23.627 64.291,10.605 62.752,12.526 80.566,26.78 80.566,44.416 52.385,23.064 50.898,25.026 80.566,47.505 80.566,79.646 
			52.848,63.38 48.479,26.412 46.035,26.701 50.186,61.817 34.977,52.891 31.701,30.311 29.265,30.665 32.258,51.295 11.883,39.337 
			10.638,41.461 31.012,53.419 11.545,60.868 12.425,63.168 33.731,55.015 48.939,63.94 16.264,77.442 17.204,79.718 51.603,65.503 
			79.358,81.792 51.548,97.987 17.197,83.655 16.25,85.928 48.879,99.541 33.64,108.415 12.362,100.19 11.474,102.487 
			30.916,110.002 10.501,121.891 11.739,124.017 32.155,112.129 29.092,132.749 31.527,133.112 34.879,110.542 50.118,101.668 
			45.848,136.769 48.292,137.068 52.787,100.114 80.566,83.937 80.566,116.087 50.899,138.566 52.386,140.528 80.566,119.176 
			80.566,136.813 62.752,151.066 64.291,152.988 80.566,139.966 80.566,163.593 83.027,163.593 83.027,139.965 99.303,152.988 
			100.842,151.066 83.027,136.813 83.027,119.176 111.208,140.528 112.695,138.566 83.027,116.087 83.027,83.946 110.745,100.213 
			115.115,137.18 117.559,136.891 113.408,101.776 128.617,110.702 131.892,133.282 134.328,132.927 131.336,112.298 
			151.711,124.255 152.956,122.132 132.581,110.174 		"/>
	</g>
</g>
<g>
</g>
<g>
</g>
<g>
</g>
<g>
</g>
<g>
</g>
<g>
</g>
<g>
</g>
<g>
</g>
<g>
</g>
<g>
</g>
<g>
</g>
<g>
</g>
<g>
</g>
<g>
</g>
<g>
</g>
</svg>
